<?xml version="1.0" encoding="UTF-8"?>
<svg id="Individual_Exports" data-name="Individual Exports" xmlns="http://www.w3.org/2000/svg" viewBox="0 0 200 87.05">
  <defs>
    <style>
      .cls-1 {
        fill: #222;
      }
    </style>
  </defs>
  <g id="link-dark">
    <g>
      <path class="cls-1" d="M123.5,12.85h-7.96c-13.88,0-25.13,11.25-25.13,25.13v1.71c5.43,2.21,11.91,4.23,18.97,4.61v-6.32c0-3.4,2.76-6.16,6.16-6.16h25.93c.17-.16.35-.32.52-.47l-18.49-18.49Z"/>
      <path class="cls-1" d="M90.42,57.1v4.63c0,3.4-2.76,6.16-6.16,6.16H25.13c-3.4,0-6.16-2.76-6.16-6.16v-24.05c0-3.4,2.76-6.16,6.16-6.16h59.13c1.53,0,2.92.56,4,1.49,1.04-6.6,4.25-12.48,8.88-16.9-3.77-2.25-8.17-3.55-12.88-3.55H25.13C11.25,12.56,0,23.81,0,37.69v24.05c0,13.88,11.25,25.13,25.13,25.13h59.13c11.73,0,21.58-8.03,24.35-18.9-6.8-2.58-12.98-6.29-18.19-10.86Z"/>
      <path class="cls-1" d="M186.78,76.11l-8.78-8.78c-.92.54-1.98.86-3.12.86h-26.97c-6.41,2.22-13.24,3.63-19.96,3.63-2.73,0-5.4-.23-7.95-.68-3.04-.54-6.01-1.31-8.89-2.26-1.35,5.72-4.33,10.8-8.44,14.73,3.77,2.25,8.17,3.55,12.88,3.55h59.33c13.88,0,25.13-11.25,25.13-25.13v-24.05c0-3.38-.67-6.61-1.89-9.55l-11.34,47.68Z"/>
    </g>
    <path class="cls-1" d="M200,0l-66.75,15.87,15.66,15.66c-7.06,6-13.07,13.55-26.76,16.48-14.59,3.12-27.01-.85-38.11-5.92,8.19,14.17,23.1,21.94,36.79,24.37,18.18,3.23,38.27-7.03,47.79-15.22l15.52,15.52L200,0Z"/>
  </g>
</svg>