<?xml version="1.0" encoding="UTF-8"?>
<svg id="Individual_Exports" data-name="Individual Exports" xmlns="http://www.w3.org/2000/svg" xmlns:xlink="http://www.w3.org/1999/xlink" viewBox="0 0 534.29 134.16">
  <defs>
    <style>
      .cls-1 {
        fill: none;
      }

      .cls-2 {
        fill: #222;
      }

      .cls-3 {
        fill: #dc0c24;
      }

      .cls-4 {
        clip-path: url(#clippath);
      }
    </style>
    <clipPath id="clippath">
      <path class="cls-1" d="M3.01,4.19h23.73v124.12H3.01V4.19ZM40.42,4.19h23.73v50.2h54.47c3.32,0,6.21,1.19,8.67,3.57l21.37,21.37c2.38,2.38,3.57,5.27,3.57,8.67v40.31h-23.73v-35.59l-14.61-14.61h-49.75v50.2h-23.73V4.19ZM128.5,4.19h23.73v75.52c-.34-.51-.94-1.23-1.79-2.17l-21.43-21.37c-.09-.04-.17-.11-.25-.19-.09-.08-.17-.19-.26-.32V4.19ZM277.66,4.26v91.91c0,3.4-1.17,6.29-3.51,8.67l-19.96,19.9c-2.38,2.38-5.25,3.57-8.61,3.57h-79.66V36.34c0-3.36,1.19-6.23,3.57-8.61l19.9-19.9c2.38-2.38,5.27-3.57,8.67-3.57h79.6ZM189.64,104.58h51.22l13.14-13.14V27.92h-51.22l-13.14,13.2v63.46ZM315.07,4.26v81.89l64.35-64.35V4.26h23.73v22.32c0,3.36-1.19,6.23-3.57,8.61l-89.55,89.55c-2.38,2.38-5.25,3.57-8.61,3.57h-10.08V4.26h23.73ZM353.53,84.81l16.71-16.77,29.34,29.28c2.38,2.47,3.57,5.36,3.57,8.67v22.32h-23.73v-17.6l-25.89-25.9ZM416.84,78.11V20.9c0-4.59,1.64-8.52,4.91-11.8,3.27-3.27,7.21-4.91,11.8-4.91h95.03v23.73h-88.02v26.47h88.02v23.73h-88.02v11.86l14.61,14.61h73.41v23.73h-78.13c-3.36,0-6.23-1.19-8.61-3.57l-21.43-21.43c-2.38-2.38-3.57-5.25-3.57-8.61v-16.58Z"/>
    </clipPath>
  </defs>
  <g id="IHOKE">
    <g class="cls-4">
      <rect class="cls-2" x="-.25" y=".74" width="282.41" height="130.51"/>
      <rect class="cls-3" x="284.3" y=".74" width="257.98" height="130.51"/>
      <rect class="cls-3" x="38.12" y=".74" width="119.13" height="130.51"/>
    </g>
  </g>
</svg>