<?xml version="1.0" encoding="UTF-8"?>
<svg id="Individual_Exports" data-name="Individual Exports" xmlns="http://www.w3.org/2000/svg" viewBox="0 0 200 200">
  <defs>
    <style>
      .cls-1 {
        fill: #222;
      }
    </style>
  </defs>
  <g id="Logo_IG" data-name="Logo IG">
    <path class="cls-1" d="M100,151.36c-28.32,0-51.36-23.04-51.36-51.36s23.04-51.36,51.36-51.36,51.36,23.04,51.36,51.36-23.04,51.36-51.36,51.36ZM100,66.15c-18.66,0-33.85,15.18-33.85,33.85s15.18,33.85,33.85,33.85,33.85-15.19,33.85-33.85-15.18-33.85-33.85-33.85Z"/>
    <path class="cls-1" d="M147.46,200H52.54C23.57,200,0,176.43,0,147.46V52.54C0,23.57,23.57,0,52.54,0h94.92C176.43,0,200,23.57,200,52.54v94.92c0,28.97-23.57,52.54-52.54,52.54ZM52.54,17.51c-19.31,0-35.02,15.71-35.02,35.02v94.92c0,19.31,15.71,35.02,35.02,35.02h94.92c19.31,0,35.02-15.71,35.02-35.02V52.54c0-19.31-15.71-35.02-35.02-35.02H52.54Z"/>
    <circle class="cls-1" cx="153.78" cy="46.75" r="12.05"/>
  </g>
</svg>