<?xml version="1.0" encoding="UTF-8"?>
<svg id="Individual_Exports" data-name="Individual Exports" xmlns="http://www.w3.org/2000/svg" viewBox="0 0 534.29 134.16">
  <defs>
    <style>
      .cls-1 {
        fill: #222;
      }
    </style>
  </defs>
  <path class="cls-1" d="M6.41,5.01h23.42v122.5H6.41V5.01Z"/>
  <path class="cls-1" d="M43.33,5.01h23.42v49.54h53.76c3.27,0,6.13,1.18,8.56,3.52l21.09,21.09c2.35,2.35,3.53,5.2,3.53,8.56v39.79h-23.42v-35.13l-14.42-14.42h-49.1v49.54h-23.42V5.01ZM130.27,5.01h23.42v74.54c-.34-.5-.92-1.22-1.76-2.14l-21.15-21.09c-.08-.04-.17-.1-.25-.19-.08-.08-.17-.19-.25-.31V5.01Z"/>
  <path class="cls-1" d="M277.49,5.07v90.71c0,3.36-1.15,6.21-3.46,8.56l-19.7,19.64c-2.35,2.35-5.18,3.53-8.5,3.53h-78.63V36.74c0-3.31,1.17-6.15,3.53-8.5l19.64-19.64c2.35-2.35,5.2-3.53,8.56-3.53h78.56ZM190.62,104.1h50.55l12.97-12.97V28.43h-50.55l-12.97,13.03v62.64Z"/>
  <path class="cls-1" d="M314.42,5.07v80.83l63.52-63.52V5.07h23.42v22.03c0,3.32-1.17,6.15-3.52,8.5l-88.38,88.38c-2.35,2.35-5.18,3.53-8.5,3.53h-9.95V5.07h23.42ZM352.38,84.58l16.49-16.56,28.96,28.89c2.35,2.43,3.52,5.29,3.52,8.56v22.03h-23.42v-17.38l-25.56-25.56Z"/>
  <path class="cls-1" d="M414.86,77.97V21.5c0-4.53,1.61-8.41,4.85-11.65,3.23-3.23,7.11-4.85,11.65-4.85h93.8v23.42h-86.87v26.12h86.87v23.42h-86.87v11.71l14.42,14.42h72.46v23.42h-77.12c-3.32,0-6.15-1.17-8.5-3.53l-21.15-21.15c-2.35-2.35-3.52-5.18-3.52-8.5v-16.37Z"/>
</svg>