<?xml version="1.0" encoding="UTF-8"?>
<svg id="Individual_Exports" data-name="Individual Exports" xmlns="http://www.w3.org/2000/svg" xmlns:xlink="http://www.w3.org/1999/xlink" viewBox="0 0 200 200">
  <defs>
    <style>
      .cls-1 {
        fill: none;
      }

      .cls-2 {
        fill: #222;
      }

      .cls-3 {
        fill: #dc0c24;
      }

      .cls-4 {
        clip-path: url(#clippath);
      }
    </style>
    <clipPath id="clippath">
      <circle id="Mask" class="cls-1" cx="98.05" cy="100" r="99.97"/>
    </clipPath>
  </defs>
  <g id="Logo">
    <g id="Outer">
      <path class="cls-3" d="M200,109.87h-47.6c-18.17,0-32.89,14.73-32.89,32.89v47.6c20.13-32.74,47.75-60.36,80.49-80.49Z"/>
    </g>
    <g id="Ring">
      <path class="cls-2" d="M112.44,20.85c33.3,5.68,59.63,32.01,65.31,65.31h20.17C191.93,41.78,156.82,6.66,112.44.68v20.17Z"/>
      <path class="cls-2" d="M85.51,178.38c-33.3-5.68-59.63-32.01-65.31-65.31H.04c5.98,44.38,41.1,79.49,85.47,85.47v-20.17Z"/>
    </g>
    <g id="HK">
      <g class="cls-4">
        <g id="HK-2" data-name="HK">
          <path class="cls-2" d="M146.42,19.17h14.57s0,46.37,0,46.37c-.21-.31-.57-.76-1.1-1.33l-13.16-13.12c-.05-.03-.11-.06-.16-.12s-.11-.12-.16-.2v-31.6Z"/>
          <path class="cls-2" d="M49.72,169.08l54.99-54.99c1.46-1.46,2.19-3.22,2.19-5.29v-41.74s30.56,0,30.56,0l8.97,8.97v21.86s14.57,0,14.57,0v-24.75c0-2.09-.73-3.86-2.19-5.33l-13.12-13.12c-1.52-1.46-3.29-2.19-5.33-2.19-5.56,0-11.14,0-16.72,0-5.59,0-11.16,0-16.72,0V-11.1s-14.57,0-14.57,0v116.97s-39.53,39.52-39.53,39.52v-50.29s-14.57,0-14.57,0v76.17s6.19,0,6.19,0c2.06,0,3.82-.73,5.29-2.19Z"/>
          <path class="cls-2" d="M76.43,148.53l10.26-10.3,18.02,17.97c1.46,1.52,2.19,3.29,2.19,5.33v51.42c-2.43,0-4.86,0-7.28,0h-7.29v-48.52s-15.9-15.9-15.9-15.9Z"/>
        </g>
      </g>
    </g>
  </g>
</svg>